<mxfile host="app.diagrams.net" modified="2023-05-01T11:50:57.047Z" agent="Mozilla/5.0 (Windows NT 10.0; Win64; x64) AppleWebKit/537.36 (KHTML, like Gecko) Chrome/112.0.0.0 Safari/537.36 Edg/112.0.1722.64" version="21.2.3" etag="3H-xDsPYgvpSuJTcr4e3" type="github">
  <diagram name="Page-1" id="fWbiZMJpTRjevKlAHTcC">
    <mxGraphModel>
      <root>
        <mxCell id="0" />
        <mxCell id="1" parent="0" />
      </root>
    </mxGraphModel>
  </diagram>
</mxfile>
